<svg width="147" height="134" viewBox="0 0 147 134" fill="none" xmlns="http://www.w3.org/2000/svg">
<path d="M68.7265 2.66946C39.8463 8.09769 15.8509 23.0281 0.913596 42.4811L93.2945 133.381L146.367 15.1423C125.479 2.49051 97.6068 -2.75876 68.7265 2.66946ZM34.42 42.9498C33.0687 35.7607 39.2439 28.5102 48.1426 26.8377C57.0413 25.1651 65.4276 29.6787 66.7788 36.8678C68.1301 44.0569 61.9549 51.3074 53.0562 52.9799C44.1575 54.6525 35.7712 50.1389 34.42 42.9498ZM84.6957 87.6317C75.797 89.3043 67.4107 84.7908 66.0595 77.6016C64.7083 70.4125 70.8834 63.1621 79.7821 61.4895C88.6808 59.8169 97.0671 64.3305 98.4183 71.5196C99.7696 78.7087 93.5944 85.9592 84.6957 87.6317Z" fill="url(#paint0_linear_214_2)"/>
<defs>
<linearGradient id="paint0_linear_214_2" x1="68.7265" y1="2.66946" x2="93.2945" y2="133.381" gradientUnits="userSpaceOnUse">
<stop stop-color="#F90000"/>
<stop offset="0.475" stop-color="#F63603"/>
<stop offset="1" stop-color="#F27706"/>
</linearGradient>
</defs>
</svg>
