<svg width="34" height="32" viewBox="0 0 34 32" fill="none" xmlns="http://www.w3.org/2000/svg">
<path d="M3.54163 5.66669C3.54163 5.40147 3.65357 5.14712 3.85282 4.95958C4.05208 4.77204 4.32233 4.66669 4.60413 4.66669H5.39463C6.74046 4.66669 7.54796 5.51869 8.00838 6.31069C8.31579 6.83869 8.53821 7.45069 8.71246 8.00535L8.85413 8.00002H26.5596C27.7355 8.00002 28.5855 9.05869 28.2625 10.124L25.6728 18.6694C25.4406 19.4358 24.9494 20.1102 24.2735 20.5904C23.5977 21.0706 22.774 21.3305 21.9271 21.3307H13.5008C12.6472 21.3307 11.8173 21.0669 11.1385 20.5798C10.4598 20.0928 9.96975 19.4094 9.74379 18.6347L8.66713 14.9387L6.88213 9.27469L6.88071 9.26402C6.65971 8.50802 6.45288 7.80002 6.14404 7.27202C5.84796 6.75869 5.60996 6.66669 5.39604 6.66669H4.60413C4.32233 6.66669 4.05208 6.56133 3.85282 6.37379C3.65357 6.18626 3.54163 5.9319 3.54163 5.66669ZM12.75 28C13.5014 28 14.2221 27.7191 14.7534 27.219C15.2848 26.7189 15.5833 26.0406 15.5833 25.3334C15.5833 24.6261 15.2848 23.9478 14.7534 23.4477C14.2221 22.9476 13.5014 22.6667 12.75 22.6667C11.9985 22.6667 11.2778 22.9476 10.7465 23.4477C10.2151 23.9478 9.91663 24.6261 9.91663 25.3334C9.91663 26.0406 10.2151 26.7189 10.7465 27.219C11.2778 27.7191 11.9985 28 12.75 28ZM22.6666 28C23.4181 28 24.1387 27.7191 24.6701 27.219C25.2014 26.7189 25.5 26.0406 25.5 25.3334C25.5 24.6261 25.2014 23.9478 24.6701 23.4477C24.1387 22.9476 23.4181 22.6667 22.6666 22.6667C21.9152 22.6667 21.1945 22.9476 20.6632 23.4477C20.1318 23.9478 19.8333 24.6261 19.8333 25.3334C19.8333 26.0406 20.1318 26.7189 20.6632 27.219C21.1945 27.7191 21.9152 28 22.6666 28Z" fill="black"/>
</svg>
